<svg xmlns="http://www.w3.org/2000/svg" version="1.1" xmlns:xlink="http://www.w3.org/1999/xlink" width="512" height="512" x="0" y="0" viewBox="0 0 152 152" style="enable-background:new 0 0 512 512" xml:space="preserve"><g><g data-name="Layer 2"><g data-name="01.Facebook"><circle cx="76" cy="76" r="76" fill="#4a6ea9" opacity="1" data-original="#4a6ea9"></circle><path fill="#ffffff" d="M66.44 81.17H56.5c-1.56 0-2.12-.57-2.12-2.14V66.9c0-1.56.59-2.15 2.13-2.15h9.93V56a21.89 21.89 0 0 1 2.73-11.26 16.51 16.51 0 0 1 8.93-7.42A21.91 21.91 0 0 1 85.75 36h9.83c1.41 0 2 .62 2 2v11.41c0 1.43-.6 2-2 2-2.69 0-5.38 0-8.06.11s-4.14 1.33-4.14 4.13c-.06 3 0 5.94 0 9h11.55c1.64 0 2.2.56 2.2 2.21v12.06c0 1.63-.52 2.14-2.17 2.15H83.32v32.54c0 1.74-.54 2.29-2.26 2.29H68.54c-1.51 0-2.1-.59-2.1-2.1z" opacity="1" data-original="#ffffff"></path></g></g></g></svg>